<svg xmlns="http://www.w3.org/2000/svg" width="24" height="24"><path fill="#86909C" fill-rule="nonzero" d="M3.312 9.846V4.425l5.418-.002.003 5.42-5.421.003Zm5.42-7.228H3.31a1.808 1.808 0 0 0-1.804 1.805v5.425a1.808 1.808 0 0 0 1.804 1.805h5.426a1.808 1.808 0 0 0 1.805-1.805V4.423a1.812 1.812 0 0 0-1.807-1.805Zm-5.42 18.068v-5.424l5.418-.002.003 5.421-5.421.005Zm5.42-7.228H3.31a1.808 1.808 0 0 0-1.804 1.804v5.426a1.808 1.808 0 0 0 1.804 1.805h5.426a1.808 1.808 0 0 0 1.805-1.805V15.26a1.812 1.812 0 0 0-1.807-1.802Zm8.129-2.49-3.834-3.834 3.83-3.834 3.836 3.832-3.832 3.837Zm5.11-5.109-3.837-3.834a1.805 1.805 0 0 0-2.55 0l-3.835 3.834a1.799 1.799 0 0 0-.527 1.273c-.002.48.187.94.527 1.28l3.837 3.836a1.805 1.805 0 0 0 2.55 0l3.837-3.836c.7-.708.7-1.85-.003-2.553Zm-7.822 14.827v-5.424l5.419-.002.002 5.421-5.42.005Zm5.424-7.228h-5.426a1.808 1.808 0 0 0-1.805 1.804v5.426a1.808 1.808 0 0 0 1.805 1.805h5.426a1.808 1.808 0 0 0 1.804-1.805V15.26a1.81 1.81 0 0 0-1.804-1.802Z"/></svg>