<svg xmlns="http://www.w3.org/2000/svg" width="32" height="32"><g fill="none" fill-rule="nonzero"><rect width="32" height="32" fill="#C9CDD4" opacity=".327" rx="4"/><g fill="#4E5969"><path d="M26.331 19.668a.941.941 0 0 0-.918.918c0 2.022-1.35 3.679-3.068 3.679H9.655c-1.717-.015-3.067-1.657-3.067-3.679a.941.941 0 0 0-.92-.918.941.941 0 0 0-.918.918c0 3.064 2.209 5.517 4.905 5.517h12.69c2.696 0 4.905-2.453 4.905-5.517a.941.941 0 0 0-.919-.918Z"/><path d="M15.355 20.095c.391.325.959.325 1.35 0L20.2 16.6a.911.911 0 0 0-1.286-1.286l-1.902 1.901V6.79a.922.922 0 0 0-1.84 0v10.425l-1.902-1.901a.911.911 0 0 0-1.286 1.286l3.371 3.495Z"/></g></g></svg>