<svg xmlns="http://www.w3.org/2000/svg" width="16" height="16"><path fill="#4E5969" fill-rule="nonzero" d="M13.124 4.464c.082-.082.174-.174.234-.28.45-.558.503-1.402.126-2.015-.38-.617-.943-.93-1.673-.93H2.77c-.176 0-.357 0-.514.05-.386.093-.74.32-.995.642a1.84 1.84 0 0 0-.405 1.14c0 .529.202.997.568 1.32A278.524 278.524 0 0 1 4.87 7.797v3.707l.002.031c.061.488.432.755.88.562l.009-.003c.242-.122.382-.366.382-.671V7.612c0-.257-.08-.467-.236-.624A89.055 89.055 0 0 1 4.259 5.28a91.67 91.67 0 0 0-1.717-1.778l-.029-.03-.035-.017a.333.333 0 0 1-.04-.047.862.862 0 0 0-.046-.056c-.103-.132-.125-.244-.077-.395.084-.189.251-.406.454-.406h9.123c.111 0 .218.06.301.17a.577.577 0 0 1 .104.492c-.022.09-.06.13-.174.245a316.27 316.27 0 0 0-3.726 3.686l-.007.006a.84.84 0 0 0-.277.624v6.406c0 .079 0 .3.163.478 0 0 .049.112.261.192.263.1.52-.014.52-.014l.066-.05c.263-.197.263-.504.263-.687V8.04a83.698 83.698 0 0 1 1.909-1.826c.641-.6 1.247-1.168 1.829-1.75Zm1.403 8.208h-3.446a.57.57 0 0 0-.575.575v.163c0 .36.292.575.575.575h3.446a.57.57 0 0 0 .576-.575v-.163c0-.344-.231-.575-.576-.575Zm0-2.068h-3.446a.57.57 0 0 0-.575.576v.121c0 .36.292.576.575.576h3.446a.57.57 0 0 0 .576-.576v-.121a.57.57 0 0 0-.576-.576Zm0-1.986h-3.446a.57.57 0 0 0-.575.575v.081c0 .36.292.576.575.576h3.446a.57.57 0 0 0 .576-.576v-.08c0-.345-.231-.576-.576-.576Z"/></svg>