<svg xmlns="http://www.w3.org/2000/svg" width="32" height="32"><g fill="none" fill-rule="nonzero"><rect width="32" height="32" fill="#C9CDD4" opacity=".327" rx="4"/><path fill="#4E5969" d="M8.143 7.429c-.429 0-.714.285-.714.714v15.714c0 .429.285.714.714.714h15.714c.429 0 .714-.285.714-.714V8.143c0-.429-.285-.714-.714-.714H8.143Zm0-1.429h15.714C25 6 26 7 26 8.143v15.714C26 25 25 26 23.857 26H8.143C7 26 6 25 6 23.857V8.143C6 7 7 6 8.143 6Zm8.571 5.714H21c.429 0 .714.286.714.715 0 .428-.285.714-.714.714h-4.286c-.428 0-.714-.286-.714-.714 0-.429.286-.715.714-.715Zm-4.285 8.572c.428 0 .714-.286.714-.715 0-.428-.286-.714-.714-.714-.429 0-.715.286-.715.714 0 .429.286.715.715.715Zm0 1.428c-1.143 0-2.143-1-2.143-2.143 0-1.142 1-2.142 2.143-2.142 1.142 0 2.142 1 2.142 2.142 0 1.143-1 2.143-2.142 2.143ZM12.286 13l-1.572-1.571a.69.69 0 0 0-1 0 .69.69 0 0 0 0 1l2 2c.143.142.429.285.572.285.143 0 .428 0 .571-.143l3-3a.69.69 0 0 0 0-1 .69.69 0 0 0-1 0L12.286 13Zm4.428 5.857H21c.429 0 .714.286.714.714 0 .429-.285.715-.714.715h-4.286c-.428 0-.714-.286-.714-.715 0-.428.286-.714.714-.714Z"/></g></svg>