<svg xmlns="http://www.w3.org/2000/svg" width="18" height="18"><path fill="currentColor" fill-rule="nonzero" d="M1.71 8.126a.584.584 0 0 1-.335-1.065L8.94 1.792a.585.585 0 0 1 .685.013l7.017 5.268a.585.585 0 0 1-.702.935L9.26 2.993 2.044 8.021a.582.582 0 0 1-.334.105Zm13.394 8.173h-4.069a.585.585 0 0 1-.584-.584v-4.087H8.105v4.087a.585.585 0 0 1-.584.584H3.364a.585.585 0 0 1-.584-.584V8.728a.585.585 0 0 1 1.169 0v6.402h2.987v-4.086c0-.323.262-.585.585-.585h3.514c.323 0 .585.262.585.585v4.086h2.9V8.728a.585.585 0 0 1 1.169 0v6.987a.585.585 0 0 1-.585.584Z"/></svg>