<svg xmlns="http://www.w3.org/2000/svg" width="24" height="24"><path fill="#86909C" fill-rule="nonzero" d="m20.236 11.562-2.794-3.495a.701.701 0 0 0-.778-.222.7.7 0 0 0-.466.658v2.098h-5.593a1.397 1.397 0 0 0 0 2.794h5.59v2.097a.698.698 0 0 0 1.245.436l2.796-3.494a.692.692 0 0 0 0-.872Zm-6.834 6.028H7.798a1.392 1.392 0 0 1-1.388-1.397v-8.4c0-.766.626-1.388 1.4-1.388h5.59a1.397 1.397 0 0 0 0-2.793H6.411a2.796 2.796 0 0 0-2.796 2.796V17.59a2.796 2.796 0 0 0 2.796 2.796h6.99a1.397 1.397 0 0 0 0-2.796Z"/></svg>