<svg xmlns="http://www.w3.org/2000/svg" width="18" height="18"><g fill="currentColor" fill-rule="nonzero"><path d="M8.345 3.91c-.436 0-.727-.292-.727-.728 0-.437.291-.727.727-.727H9.8c.436 0 .727.29.727.727 0 .436-.29.727-.727.727H8.345Zm5.746 0c-.436 0-.727-.292-.727-.728 0-.437.29-.727.727-.727h1.454c.8 0 1.455.654 1.455 1.454v11.636c0 .8-.655 1.455-1.455 1.455H2.455C1.655 17 1 16.345 1 15.545V3.91c0-.8.655-1.454 1.455-1.454h1.454c.436 0 .727.29.727.727 0 .436-.29.727-.727.727H2.455v11.636h13.09V3.91h-1.454Z"/><path d="M6.818 1.727v2.91c0 .436-.29.727-.727.727-.436 0-.727-.291-.727-.728V1.727c0-.436.29-.727.727-.727.436 0 .727.29.727.727Zm5.818 0v2.91c0 .436-.29.727-.727.727-.436 0-.727-.291-.727-.728V1.727c0-.436.29-.727.727-.727.436 0 .727.29.727.727ZM7.764 11.11 11.4 7.472a.703.703 0 0 1 1.018 0c.291.29.291.727 0 1.018l-4.073 4.073s-.072.072-.145.072a.779.779 0 0 1-1.018-.072l-2.037-2.037a.703.703 0 0 1 0-1.018.703.703 0 0 1 1.019 0l1.6 1.6Z"/></g></svg>