<svg xmlns="http://www.w3.org/2000/svg" width="16" height="16"><path fill="#FFF" fill-rule="nonzero" d="M15.37 4.887a7.978 7.978 0 0 0-1.714-2.543A7.978 7.978 0 0 0 8 0a7.978 7.978 0 0 0-5.656 2.344A7.978 7.978 0 0 0 0 8a7.978 7.978 0 0 0 2.344 5.656A7.978 7.978 0 0 0 8 16a7.978 7.978 0 0 0 5.656-2.344A7.978 7.978 0 0 0 16 8c0-1.08-.212-2.128-.63-3.113Zm-7.368 9.942A6.836 6.836 0 0 1 1.172 8a6.836 6.836 0 0 1 6.83-6.829A6.836 6.836 0 0 1 14.83 8a6.836 6.836 0 0 1-6.83 6.829Zm3.95-7.306-5.34-3.755a.586.586 0 0 0-.922.477l.001 7.506a.58.58 0 0 0 .585.584.577.577 0 0 0 .337-.107l5.34-3.753a.583.583 0 0 0-.002-.952Z"/></svg>