<svg xmlns="http://www.w3.org/2000/svg" width="24" height="24"><path fill="#86909C" fill-rule="nonzero" d="M13.44 11.275h-.206l.796 4.428a4.37 4.37 0 0 0 1.428-.84 7.262 7.262 0 0 1-1.058-1.735l.84-.108c.228.468.492.895.797 1.255.621-.753 1.092-1.757 1.428-3.012l-4.025.012Zm3.175 3.588c.48.415 1.025.72 1.637.905l.382.12-.228.818-.382-.12a5.443 5.443 0 0 1-1.985-1.123 5.261 5.261 0 0 1-1.855 1.08l.535 2.988h-3.187l-.425 1.954H21.11a.854.854 0 0 0 .852-.852V6.168a.854.854 0 0 0-.852-.852h-8.935l.665 3.708-.022-.012.077.403.012-.055.185 1.058h2.062v-.852h1.593v.852h2.662v.852h-1.114c-.372 1.498-.938 2.698-1.68 3.593Zm-5.957 4.659H2.902A1.703 1.703 0 0 1 1.2 17.82V3.365c0-.948.763-1.702 1.702-1.702h8.508l.523 2.803h9.163c.938 0 1.702.764 1.702 1.702v14.465c0 .938-.764 1.701-1.702 1.701h-11.05l.612-2.812Zm-4.015-6.545v-.895h-1.68v-1.32h1.56v-.884h-1.56V8.755h1.68v-.883H3.982v5.105h2.661Zm4.102 0v-2.554c0-.458-.108-.818-.317-1.068-.209-.25-.523-.372-.938-.372-.24 0-.459.043-.644.142-.185.099-.337.251-.436.437h-.056l-.132-.502h-.741v3.917h.96v-1.843c0-.459.065-.785.185-.994.12-.197.316-.295.588-.295.196 0 .338.065.436.206.087.142.142.348.142.634v2.292h.953Z"/></svg>