<svg xmlns="http://www.w3.org/2000/svg" width="24" height="24" class="icon" viewBox="0 0 1024 1024"><path d="M629.419 104.311c113.459 11.333 204.663 79.736 224.05 196.882h-65.672l106.087 157.832L999.97 301.193h-73.182c-19.524-157.833-138.99-260.37-289.86-274.979-20.89-1.638-40.277 16.248-40.277 39.049 1.365 19.524 14.745 37.41 32.768 39.048zm-164.25-79.735H96.256c-20.89 0-37.274 17.886-37.274 40.687V416.7c0 22.8 16.384 40.687 37.274 40.687h368.913c20.89 0 37.274-17.886 37.274-40.687V65.263c0-22.801-16.384-40.687-37.274-40.687zM429.261 379.29H132.164V102.673h297.233l-.136 276.617zm-35.908 540.125c-126.976-11.332-224.052-95.982-228.557-235.93h70.178L129.16 525.79 23.074 683.486h70.178c2.867 180.633 129.843 297.78 292.728 314.027 20.89 1.638 40.277-16.248 40.277-39.049.41-19.388-13.653-36.045-32.904-39.049zm534.8-353.075H559.242c-21.027 0-37.274 18.023-37.274 40.687v353.075c0 22.665 16.384 40.55 37.274 40.55h368.913c20.89 0 37.273-17.885 37.273-40.55V607.027c0-22.664-17.886-40.687-37.273-40.687zm-35.908 354.714H595.012V646.076h297.233v274.978zm0 0"/></svg>