<svg xmlns="http://www.w3.org/2000/svg" width="24" height="24"><path fill="#86909C" fill-rule="nonzero" d="M11.991.044c-6.61 0-11.97 5.36-11.97 11.97s5.36 11.97 11.97 11.97 11.97-5.36 11.97-11.97S18.6.044 11.99.044Zm0 1.633c5.71 0 10.338 4.628 10.338 10.337a10.29 10.29 0 0 1-1.622 5.561 11.952 11.952 0 0 0-6.577-3.559 4.891 4.891 0 0 0 2.775-4.407 4.897 4.897 0 1 0-9.793 0 4.891 4.891 0 0 0 2.775 4.407 11.952 11.952 0 0 0-6.597 3.581 10.288 10.288 0 0 1-1.636-5.583c0-5.71 4.629-10.337 10.337-10.337Z"/></svg>